<?xml version="1.0" standalone="no"?>
<!DOCTYPE svg PUBLIC "-//W3C//DTD SVG 20010904//EN"
 "http://www.w3.org/TR/2001/REC-SVG-20010904/DTD/svg10.dtd">
<svg version="1.0" xmlns="http://www.w3.org/2000/svg"
 width="1952.000000pt" height="1727.000000pt" viewBox="0 0 1952.000000 1727.000000"
 preserveAspectRatio="xMidYMid meet">

<g transform="translate(0.000000,1727.000000) scale(0.100000,-0.100000)"
fill="#000000" stroke="none">
<path d="M6198 17240 c-52 -79 -82 -291 -55 -391 l14 -56 -56 -28 c-256 -124
-489 -373 -600 -639 -90 -216 -106 -356 -92 -806 9 -306 20 -419 46 -487 2 -8
24 7 54 36 59 58 131 94 219 111 l62 13 0 121 c0 195 32 337 90 408 54 66 144
88 532 133 241 27 286 39 455 120 123 59 189 100 245 153 l36 34 11 -38 c23
-84 8 -188 -36 -236 -26 -29 -8 -32 79 -15 129 25 236 83 334 181 45 45 86 90
92 101 6 11 14 17 18 13 10 -11 10 -99 0 -120 -12 -27 25 -23 90 9 51 25 154
121 154 144 0 22 19 4 75 -68 90 -117 188 -225 228 -253 l37 -25 0 -122 0
-122 -52 24 c-98 44 -269 57 -296 22 -9 -13 -36 -126 -30 -132 1 -2 28 3 58
11 65 17 169 18 242 3 59 -13 156 -57 206 -96 18 -14 35 -23 37 -22 10 12 27
147 37 307 12 198 5 284 -33 437 -118 466 -525 841 -999 920 -104 17 -168 19
-530 16 l-284 -2 -29 38 c-41 54 -87 153 -87 188 -1 29 -1 29 -16 10 -33 -43
-66 -121 -78 -184 l-12 -66 -47 80 c-57 97 -86 170 -95 245 l-8 55 -16 -25z"/>
<path d="M6580 15523 c-96 -16 -203 -70 -267 -134 -48 -47 -53 -72 -25 -118
l18 -30 45 61 c66 92 180 171 299 209 l55 17 -50 0 c-27 -1 -61 -3 -75 -5z"/>
<path d="M6692 15450 c-101 -27 -166 -64 -242 -140 -83 -83 -108 -129 -92
-164 16 -36 37 -33 90 15 62 55 188 115 282 135 41 8 79 19 83 23 9 9 -26 144
-39 147 -5 2 -42 -6 -82 -16z"/>
<path d="M7975 15280 c-62 -10 -128 -33 -132 -47 -2 -6 30 -13 79 -16 96 -8
167 -27 255 -68 l63 -30 2 -172 3 -172 51 135 c29 74 58 154 65 178 12 42 12
43 -21 77 -82 84 -241 134 -365 115z"/>
<path d="M6807 15016 c-49 -18 -64 -32 -88 -77 -37 -74 -13 -166 54 -208 48
-30 132 -29 177 2 69 47 92 151 47 218 -23 36 -97 79 -132 79 -11 -1 -37 -7
-58 -14z"/>
<path d="M7890 14908 c-52 -35 -80 -83 -80 -136 0 -161 196 -220 294 -88 16
20 21 42 21 86 0 92 -54 150 -147 158 -44 3 -59 0 -88 -20z"/>
<path d="M5736 14631 l61 -58 -41 -14 c-57 -20 -89 -70 -83 -128 12 -110 154
-149 218 -60 25 36 29 131 6 174 -29 56 -110 114 -192 136 -27 7 -24 3 31 -50z"/>
<path d="M7426 14641 c-30 -32 -66 -133 -66 -189 0 -75 61 -152 122 -152 36 0
83 34 103 75 22 48 16 131 -14 201 -43 97 -93 119 -145 65z"/>
<path d="M6303 14358 c-47 -53 -113 -148 -113 -162 0 -9 8 -16 18 -16 20 0
142 158 142 184 0 23 -23 20 -47 -6z"/>
<path d="M6392 14281 c-63 -81 -80 -127 -43 -113 23 8 141 158 141 178 0 36
-41 9 -98 -65z"/>
<path d="M7870 14301 c0 -22 153 -141 182 -141 33 0 5 38 -76 100 -83 63 -106
72 -106 41z"/>
<path d="M8052 14303 c-18 -7 118 -111 139 -106 27 8 11 35 -44 76 -49 36 -67
41 -95 30z"/>
<path d="M6930 14267 c-70 -35 -11 -234 88 -299 55 -37 109 -52 187 -52 105 0
186 52 232 150 16 32 15 35 -3 55 -42 47 -249 126 -385 149 -81 13 -89 12
-119 -3z"/>
<path d="M14983 13613 l-2183 -3 0 -80 0 -80 523 -1 c3433 -10 3992 -14 4022
-31 41 -22 83 -65 106 -108 l18 -35 1 56 c1 137 -124 269 -265 281 -22 2
-1022 2 -2222 1z"/>
<path d="M12740 13530 c0 -73 2 -80 20 -80 18 0 20 7 20 80 0 73 -2 80 -20 80
-18 0 -20 -7 -20 -80z"/>
<path d="M6690 13406 c0 -21 135 -115 235 -165 105 -52 187 -78 292 -92 82
-11 216 -6 241 9 8 6 9 38 5 112 l-6 105 -286 0 c-283 0 -329 4 -458 41 -17 5
-23 2 -23 -10z"/>
<path d="M6573 13163 c-22 -4 -23 -8 -23 -117 0 -194 40 -298 159 -416 84 -84
149 -120 258 -146 225 -53 479 69 581 280 40 82 54 151 56 264 l1 95 -50 14
c-89 23 -83 31 -87 -129 -3 -131 -5 -148 -30 -200 -34 -74 -112 -152 -186
-186 -51 -24 -69 -27 -167 -27 -106 0 -112 1 -173 34 -35 19 -85 58 -112 88
-72 78 -91 138 -101 308 -4 77 -8 141 -8 143 -1 3 -93 0 -118 -5z"/>
<path d="M10063 12301 c60 -61 103 -134 121 -205 9 -33 17 -61 19 -63 3 -2 7
17 10 42 11 80 -17 172 -75 246 -8 10 -35 18 -66 21 l-53 5 44 -46z"/>
<path d="M5521 12229 c-220 -43 -338 -157 -373 -359 -7 -38 -10 -71 -7 -73 2
-3 38 1 79 9 41 7 90 13 108 14 l32 0 0 -585 c0 -368 4 -585 10 -585 25 0 131
47 180 81 250 170 379 523 289 787 -56 165 -203 276 -396 299 l-56 6 39 20
c135 67 209 177 229 341 l7 56 -48 -1 c-27 -1 -69 -5 -93 -10z"/>
<path d="M6371 11324 c-46 -264 -88 -488 -92 -499 -5 -16 -41 -32 -160 -70
l-154 -50 199 -3 c110 -1 203 1 208 6 8 8 91 1053 86 1080 -2 8 -41 -201 -87
-464z"/>
<path d="M8401 11028 c-1 -241 1 -438 4 -438 3 0 49 30 103 67 53 37 98 67 99
68 3 2 -182 675 -197 715 -5 15 -9 -146 -9 -412z"/>
<path d="M13887 11243 c-20 -19 9 -23 183 -23 l190 0 0 -1005 0 -1005 -74 0
c-63 0 -75 3 -79 18 -3 9 -52 458 -109 996 l-103 980 -3 -1002 -2 -1002 -333
-2 -332 -3 0 -90 0 -90 1370 0 1370 0 3 84 c2 61 -1 87 -10 92 -7 5 -160 9
-339 9 l-327 0 -7 68 c-3 37 -22 207 -40 377 -19 171 -32 321 -29 335 5 27
-122 1245 -131 1261 -7 10 -1188 13 -1198 2z"/>
<path d="M3880 10365 l0 -275 125 0 125 0 0 275 0 275 -125 0 -125 0 0 -275z"/>
<path d="M4657 10633 c-4 -3 -7 -129 -7 -280 l0 -273 -210 0 -210 0 0 -270 0
-270 260 0 260 0 0 269 c0 230 -2 270 -15 275 -13 5 -15 45 -15 281 l0 275
-28 0 c-16 0 -32 -3 -35 -7z"/>
<path d="M4836 10632 c-2 -4 -7 -251 -11 -549 l-7 -543 56 0 56 0 0 275 0 275
720 0 720 0 -2 273 -3 272 -762 2 c-419 1 -764 -1 -767 -5z"/>
<path d="M7896 10469 c-26 -20 -49 -58 -78 -129 l-15 -35 191 12 c105 6 229
12 275 12 l83 1 -14 23 c-11 16 -57 36 -184 79 -93 31 -183 57 -200 57 -18 1
-43 -8 -58 -20z"/>
<path d="M8275 9965 c6 -2 89 -13 185 -25 96 -11 189 -23 205 -26 l30 -5 -33
30 -32 31 -183 -1 c-100 0 -177 -2 -172 -4z"/>
<path d="M8195 9665 c18 -7 407 -56 412 -52 2 2 -1 16 -6 31 l-11 26 -202 -1
c-112 0 -198 -2 -193 -4z"/>
<path d="M8185 9364 c149 -21 179 -22 183 -1 3 16 -8 17 -135 16 l-138 -2 90
-13z"/>
<path d="M8572 9178 c-18 -18 -15 -133 4 -152 14 -14 198 -16 1875 -16 1263 0
1867 3 1880 10 16 9 19 22 19 78 0 40 -5 73 -12 80 -17 17 -3749 17 -3766 0z"/>
<path d="M16160 8835 l0 -175 -6881 0 -6881 0 7 -27 c9 -39 31 -70 62 -90 24
-16 61 -18 350 -21 299 -3 323 -4 323 -20 0 -73 -108 -1155 -176 -1757 -69
-615 -226 -1887 -249 -2022 l-6 -33 -52 39 c-106 79 -242 131 -348 131 -44 0
-49 3 -87 53 -100 128 -249 200 -417 200 -143 0 -268 -54 -371 -160 -76 -78
-76 -79 17 -86 l81 -5 51 39 c72 54 135 74 233 73 68 0 90 -5 145 -31 35 -16
75 -40 89 -51 l25 -21 -167 -1 -168 0 0 -1935 0 -1935 210 0 210 0 0 -25 0
-25 182 2 183 3 8 52 c8 49 11 53 62 82 69 39 175 138 231 216 55 78 105 185
141 300 l28 90 5 1255 5 1255 57 410 c61 437 148 1123 198 1550 16 143 32 275
35 293 l6 33 1672 -7 c920 -4 1673 -8 1675 -9 2 -2 42 -309 42 -327 0 -5 -277
-8 -615 -8 -367 0 -615 -4 -615 -9 0 -23 15 -43 41 -56 21 -11 67 -15 186 -15
l158 0 15 -32 c8 -18 28 -41 43 -52 27 -20 43 -21 373 -24 l344 -3 0 -103 c0
-98 1 -105 30 -144 16 -23 48 -51 70 -62 46 -24 41 -7 75 -256 l25 -191 0
-895 0 -894 -245 -238 c-211 -205 -595 -602 -603 -624 -2 -6 1320 -1076 1504
-1218 11 -9 54 -179 54 -215 0 -5 -78 54 -173 131 -126 102 -181 140 -200 140
-21 0 -27 5 -27 23 -1 25 -111 117 -141 117 -11 0 -19 6 -19 14 0 8 -33 42
-72 75 l-73 60 -3 -74 -3 -75 -30 0 c-71 0 -129 -51 -129 -115 l0 -25 -228 0
c-216 0 -230 -1 -272 -23 -25 -12 -55 -38 -68 -57 -22 -32 -23 -43 -20 -145 3
-124 13 -147 79 -184 36 -21 46 -21 908 -21 479 0 871 3 871 8 0 4 -14 78 -31
165 l-32 158 19 62 c41 134 20 239 -67 334 -21 23 -41 52 -44 65 -8 33 -136
708 -175 919 l-32 177 20 28 c38 53 33 101 -17 150 l-39 39 -61 350 c-156 902
-215 1274 -307 1933 -44 316 -46 334 -29 352 29 32 44 92 45 177 l0 82 339 3
c325 3 341 4 368 24 15 11 35 34 43 52 l15 32 160 0 c174 0 201 7 223 53 17
35 54 36 226 0 l129 -26 22 26 c17 22 29 27 68 27 58 0 67 14 67 109 0 65 -2
71 -22 76 -13 2 -186 27 -386 54 -200 27 -366 51 -369 54 -11 12 29 214 63
317 105 317 322 610 638 862 200 159 383 242 536 243 81 0 92 -3 230 -58 80
-32 152 -60 160 -63 15 -5 125 71 134 93 6 15 -225 130 -519 258 -219 96 -846
358 -882 369 -21 7 -23 4 -23 -33 l0 -41 -774 0 -774 0 -6 23 c-3 12 -6 43 -6
70 l0 47 3940 0 c2808 0 3940 -3 3940 -11 0 -24 -63 -689 -96 -1009 -109
-1071 -310 -2697 -455 -3680 -17 -113 -35 -240 -40 -283 -13 -107 -128 -888
-134 -907 -3 -8 -12 -69 -20 -135 -15 -111 -55 -374 -185 -1206 -28 -174 -50
-321 -50 -328 0 -8 52 -11 180 -11 178 0 180 0 185 22 9 38 101 624 170 1083
36 237 70 453 75 480 5 28 12 73 15 100 3 28 35 250 72 495 36 245 68 461 70
480 2 19 20 145 38 280 110 790 234 1758 300 2330 14 124 28 235 30 248 l5 22
1675 0 1675 0 4 -22 c3 -13 15 -104 26 -203 159 -1380 477 -3315 840 -5109 22
-110 40 -201 40 -203 0 -2 84 -3 186 -3 l186 0 -5 23 c-3 12 -44 216 -91 452
-533 2682 -850 4885 -981 6803 -21 307 -22 292 15 292 68 0 150 63 150 116 0
23 -2 24 -80 24 l-80 0 0 175 0 175 -105 0 -105 0 0 -175 0 -175 -150 0 -150
0 0 175 0 175 -205 0 -205 0 0 -175 0 -175 -160 0 -160 0 0 175 0 175 -50 0
-50 0 0 -175 0 -175 -100 0 -100 0 0 175 0 175 -95 0 -95 0 0 -175 0 -175 -95
0 -95 0 0 175 0 175 -180 0 -180 0 0 -175z m-9680 -362 c0 -27 3 -58 6 -70 6
-22 3 -23 -45 -23 l-51 0 0 -715 c0 -470 -3 -715 -10 -715 -7 0 -10 245 -10
715 0 470 -3 715 -10 715 -7 0 -10 -244 -10 -713 l0 -714 -382 -6 c-211 -4
-886 -7 -1502 -7 l-1119 0 7 48 c21 162 146 1455 146 1509 l0 23 1490 0 1490
0 0 -47z m11584 -70 c15 -263 48 -689 81 -1050 19 -210 35 -389 35 -397 0 -14
-159 -16 -1626 -16 l-1627 0 6 53 c27 231 147 1465 147 1512 0 13 190 15 1489
15 l1488 0 7 -117z m-10818 -1943 c205 -13 363 -28 375 -36 5 -3 9 -68 9 -145
l0 -139 -284 0 -283 0 -17 153 c-10 83 -20 161 -23 171 -5 16 -1 18 24 13 16
-3 105 -11 199 -17z m-207 -2690 c32 -201 58 -366 57 -367 0 -1 -29 19 -63 45
l-63 46 1 336 c1 184 3 328 5 320 2 -8 31 -179 63 -380z m214 -1317 c9 -3 19
-15 22 -27 17 -82 23 -121 20 -125 -3 -2 -58 17 -122 42 l-118 45 2 58 c3 89
2 88 95 48 46 -20 91 -39 101 -41z m53 -238 c6 -2 15 -25 19 -50 3 -26 9 -54
12 -61 4 -11 -6 -14 -38 -14 -73 0 -87 9 -124 72 -19 32 -35 60 -35 61 0 4
154 -4 166 -8z"/>
<path d="M9210 2595 c-162 -8 -323 -17 -357 -20 l-61 -6 -6 -37 c-32 -197 -96
-1048 -96 -1264 l0 -78 103 6 c132 7 2054 74 2124 74 l53 0 0 39 c0 132 -68
312 -142 375 -57 49 -109 63 -298 81 -91 9 -219 25 -286 36 l-121 21 -98 -71
c-54 -39 -103 -71 -109 -71 -13 0 -136 40 -136 45 0 1 43 35 95 75 52 40 93
76 90 80 -15 25 -62 17 -207 -35 -84 -30 -154 -55 -156 -55 -3 0 -72 108 -72
114 0 3 53 22 118 42 64 20 118 38 120 39 2 2 -15 29 -38 61 -73 104 -85 188
-50 354 26 124 25 134 -9 172 -27 30 -34 32 -97 34 -38 1 -202 -4 -364 -11z"/>
</g>
</svg>
